<?xml version="1.0" encoding="UTF-8" standalone="no"?>
<svg
   xmlns:dc="http://purl.org/dc/elements/1.1/"
   xmlns:cc="http://creativecommons.org/ns#"
   xmlns:rdf="http://www.w3.org/1999/02/22-rdf-syntax-ns#"
   xmlns:svg="http://www.w3.org/2000/svg"
   xmlns="http://www.w3.org/2000/svg"
   viewBox="0 0 1407.76 362.56"
   height="362.56"
   width="1407.76"
   xml:space="preserve"
   id="svg2"
   version="1.1"><metadata
     id="metadata8"><rdf:RDF><cc:Work
         rdf:about=""><dc:format>image/svg+xml</dc:format><dc:type
           rdf:resource="http://purl.org/dc/dcmitype/StillImage" /></cc:Work></rdf:RDF></metadata><defs
     id="defs6" /><g
     transform="matrix(1.3333333,0,0,-1.3333333,0,362.56)"
     id="g10"><g
       transform="scale(0.1)"
       id="g12"><path
         id="path14"
         style="fill:#3e303c;fill-opacity:1;fill-rule:nonzero;stroke:none"
         d="m 4612.42,1643.9 c -10.32,-18.05 -21.91,-30.91 -34.77,-38.63 -12.88,-7.73 -28.97,-11.6 -48.29,-11.6 -21.91,0 -45.73,6.77 -71.47,20.29 -25.78,13.52 -56.02,28.64 -90.8,45.39 -34.77,16.73 -75.66,31.88 -122.66,45.4 -47.02,13.52 -102.08,20.28 -165.16,20.28 -51.53,0 -98.22,-6.13 -140.05,-18.35 -41.87,-12.25 -77.27,-29.64 -106.25,-52.16 -28.97,-22.55 -51.19,-48.95 -66.64,-79.2 -15.46,-30.27 -23.18,-62.78 -23.18,-97.55 0,-46.36 14.15,-85 42.49,-115.9 28.32,-30.91 65.68,-57.66 112.05,-80.17 46.36,-22.55 99.15,-42.83 158.4,-60.85 59.22,-18.05 119.76,-37.36 181.58,-57.95 61.82,-20.61 122.33,-44.43 181.58,-71.47 59.22,-27.04 112.04,-60.22 158.4,-99.489 46.36,-39.293 83.7,-86.929 112.04,-142.941 28.31,-56.031 42.5,-123.969 42.5,-203.801 0,-92.73 -16.75,-178.379 -50.22,-256.918 C 4648.46,309.711 4599.54,241.469 4535.16,183.52 4470.74,125.57 4390.58,80.4688 4294.66,48.2891 4198.7,16.1211 4088.93,0 3965.3,0 3897.02,0 3831.04,6.12109 3767.29,18.3516 3703.55,30.6094 3643,47.332 3585.71,68.582 c -57.32,21.25 -110.77,46.668 -160.33,76.297 -49.59,29.609 -93.69,61.82 -132.32,96.59 l 96.58,158.39 c 11.6,19.321 26.08,34.45 43.47,45.411 17.38,10.921 38.94,16.41 64.71,16.41 27.04,0 53.76,-8.692 80.17,-26.071 26.38,-17.39 57.28,-36.41 92.72,-56.988 35.4,-20.609 78.24,-39.601 128.46,-56.992 50.22,-17.379 112.67,-26.07 187.38,-26.07 61.81,0 115.24,7.39 160.33,22.211 45.06,14.789 82.4,35.07 112.04,60.851 29.61,25.75 51.49,55.051 65.68,87.899 14.15,32.839 21.24,67.91 21.24,105.269 0,50.223 -14.18,91.422 -42.49,123.633 -28.35,32.18 -66.01,59.879 -113.01,83.066 -47.02,23.184 -100.45,43.762 -160.33,61.813 -59.88,18.019 -120.73,37.34 -182.55,57.949 -61.82,20.59 -122.66,44.441 -182.55,71.48 -59.88,27.04 -113.33,61.48 -160.33,103.35 -47.03,41.83 -84.69,92.71 -113,152.6 -28.35,59.88 -42.5,132.96 -42.5,219.25 0,78.54 15.75,153.24 47.33,224.08 31.53,70.81 77.9,133.29 139.08,187.38 61.15,54.09 136.49,96.89 226.01,128.45 89.49,31.55 192.84,47.34 310.04,47.34 132.63,0 253.06,-21.25 361.23,-63.75 108.18,-42.5 198.97,-100.45 272.38,-173.86 l -92.73,-150.67" /><path
         id="path16"
         style="fill:#3e303c;fill-opacity:1;fill-rule:nonzero;stroke:none"
         d="m 6414.7,1238.23 c 0,69.55 -9.99,134.26 -29.94,194.14 -19.98,59.89 -49.26,112.05 -87.9,156.47 -38.64,44.43 -86.63,79.2 -143.91,104.32 -57.32,25.11 -123.33,37.67 -198.01,37.67 -150.67,0 -269.17,-43.17 -355.43,-129.43 -86.3,-86.29 -141.01,-207.36 -164.2,-363.17 z M 5423.72,983.25 c 5.13,-112.039 22.52,-208.961 52.16,-290.73 29.61,-81.801 69.21,-149.711 118.8,-203.79 49.56,-54.089 108.81,-94.351 177.71,-120.73 68.89,-26.418 145.85,-39.609 230.85,-39.609 81.14,0 151.31,9.339 210.56,28.019 59.22,18.649 110.74,39.27 154.53,61.809 43.77,22.511 81.13,43.133 112.04,61.812 30.91,18.66 59.22,28.02 85,28.02 33.47,0 59.22,-12.891 77.27,-38.629 L 6760.47,316.809 C 6711.51,258.852 6656.16,209.891 6594.35,169.988 6532.53,130.059 6466.86,97.5508 6397.3,72.4414 6327.76,47.332 6256.29,29.3086 6182.89,18.3516 6109.48,7.42188 6038.01,1.94141 5968.47,1.94141 5831.95,1.94141 5705.42,24.8203 5588.89,70.5117 5472.31,116.199 5371.23,183.52 5285.6,272.371 5199.94,361.23 5133,471.34 5084.7,602.699 c -48.29,131.352 -72.43,282.66 -72.43,453.951 0,136.49 21.54,263.99 64.71,382.49 43.13,118.46 104.94,221.48 185.44,309.07 80.47,87.56 178.35,156.77 293.62,207.66 115.24,50.86 245.63,76.31 391.18,76.31 121.03,0 233.07,-19.65 336.12,-58.92 103.02,-39.3 191.87,-96.92 266.57,-172.89 74.68,-76 132.96,-169.03 174.83,-279.14 41.83,-110.11 62.78,-235.36 62.78,-375.71 0,-64.42 -7.1,-107.55 -21.25,-129.43 -14.19,-21.918 -39.93,-32.84 -77.27,-32.84 H 5423.72" /><path
         id="path18"
         style="fill:#3e303c;fill-opacity:1;fill-rule:nonzero;stroke:none"
         d="M 8862.18,2001.27 8070.17,30.9102 H 7695.42 L 6903.41,2001.27 h 341.91 c 32.18,0 58.92,-8.06 80.17,-24.15 21.25,-16.12 35.08,-35.1 41.53,-56.99 L 7803.59,772.691 c 18.02,-54.089 34.11,-107.543 48.29,-160.339 14.16,-52.813 26.38,-106.243 36.7,-160.332 10.3,54.089 22.86,107.218 37.68,159.371 14.78,52.16 31.21,105.918 49.26,161.3 l 444.29,1147.439 c 7.73,23.19 21.89,42.5 42.5,57.96 20.58,15.45 45.7,23.18 75.34,23.18 h 324.53" /><path
         id="path20"
         style="fill:#3e303c;fill-opacity:1;fill-rule:nonzero;stroke:none"
         d="m 10154.5,892.461 c -148.1,-5.16 -273.03,-17.09 -374.74,-35.742 -101.75,-18.68 -184.18,-42.5 -247.27,-71.469 -63.11,-28.98 -108.51,-63.449 -136.18,-103.352 -27.72,-39.937 -41.53,-83.718 -41.53,-131.359 0,-46.359 7.39,-85.957 22.21,-118.801 14.79,-32.828 35.4,-59.879 61.81,-81.129 26.39,-21.25 57.29,-36.699 92.72,-46.359 35.41,-9.66 74.38,-14.488 116.88,-14.488 108.17,0 201.2,20.277 279.13,60.847 77.87,40.563 153.57,99.481 226.97,176.75 z M 9053.43,1726.96 c 222.78,207.33 488.05,311.01 795.87,311.01 113.3,0 214.1,-18.35 302.3,-55.05 88.2,-36.71 162.3,-88.56 222.2,-155.51 59.8,-66.97 105.5,-146.51 137.1,-238.57 31.6,-92.09 47.3,-194.13 47.3,-306.17 V 30.9102 h -185.4 c -39.9,0 -70.2,6.0898 -90.8,18.3515 -20.6,12.2305 -38,37 -52.2,74.3673 l -40.5,160.34 c -50.2,-45.098 -99.8,-85.34 -148.8,-120.739 C 9991.58,127.789 9941.05,97.8516 9888.9,73.4102 9836.74,48.9297 9780.72,30.6094 9720.84,18.3516 9660.95,6.12109 9594.94,0 9522.83,0 c -79.86,0 -154.24,10.9609 -223.11,32.8398 -68.91,21.8907 -128.46,55.0508 -178.68,99.4922 -50.23,44.43 -89.83,99.477 -118.8,165.156 -28.98,65.684 -43.47,142.942 -43.47,231.813 0,75.969 20.28,150.008 60.85,222.148 40.57,72.102 107.51,136.813 200.9,194.129 93.36,57.292 216.36,104.622 368.96,141.982 152.6,37.33 340.95,58.58 565.02,63.75 v 131.36 c 0,141.65 -30.3,247.26 -90.8,316.8 -60.5,69.54 -149.39,104.31 -266.56,104.31 -79.86,0 -146.82,-9.99 -200.9,-29.94 -54.09,-19.98 -101.11,-41.53 -141.02,-64.71 -39.93,-23.18 -75.34,-44.76 -106.25,-64.71 -30.9,-19.98 -63.74,-29.95 -98.51,-29.95 -28.34,0 -52.49,7.4 -72.44,22.22 -19.98,14.79 -36.4,33.14 -49.26,55.05 l -75.33,135.22" /><path
         id="path22"
         style="fill:#3e303c;fill-opacity:1;fill-rule:nonzero;stroke:none"
         d="m 1471.34,1479.68 v 519.76 h -59.69 v -519.76 c 9.89,0.68 19.83,1.14 29.84,1.14 10.02,0 19.96,-0.46 29.85,-1.14" /><path
         id="path24"
         style="fill:#3e303c;fill-opacity:1;fill-rule:nonzero;stroke:none"
         d="m 1109.09,2161.59 c -12.82,15.54 -24.4,31.87 -34.81,48.84 L 651.902,1966.56 c 10.071,-17.28 18.926,-35.19 26.442,-53.66 l 430.746,248.69" /><path
         id="path26"
         style="fill:#3e303c;fill-opacity:1;fill-rule:nonzero;stroke:none"
         d="m 2199.09,1904.19 29.85,51.7 -425.76,245.81 c -10.84,-16.74 -22.91,-32.79 -36.14,-48.06 l 432.05,-249.45" /><path
         id="path28"
         style="fill:#3e303c;fill-opacity:1;fill-rule:nonzero;stroke:none"
         d="m 1087.46,1353.44 29.84,51.7 -419.761,242.35 c -4.851,-19.84 -11.144,-39.24 -18.762,-58.1 l 408.683,-235.95" /><path
         id="path30"
         style="fill:#3e303c;fill-opacity:1;fill-rule:nonzero;stroke:none"
         d="m 1745.04,1405.14 29.85,-51.7 423.35,244.42 c -6.93,19.47 -12.4,39.34 -16.44,59.44 l -436.76,-252.16" /><path
         id="path32"
         style="fill:#7acfdc;fill-opacity:1;fill-rule:nonzero;stroke:none"
         d="m 560,1749.23 c 0,-154.64 -125.359,-280 -280,-280 -154.641,0 -280,125.36 -280,280 0,154.64 125.359,280 280,280 154.641,0 280,-125.36 280,-280" /><path
         id="path34"
         style="fill:#4bbd88;fill-opacity:1;fill-rule:nonzero;stroke:none"
         d="m 2880,1749.23 c 0,-154.64 -125.36,-280 -280,-280 -154.64,0 -280,125.36 -280,280 0,154.64 125.36,280 280,280 154.64,0 280,-125.36 280,-280" /><path
         id="path36"
         style="fill:#de0f64;fill-opacity:1;fill-rule:nonzero;stroke:none"
         d="m 1720,2439.23 c 0,-154.64 -125.36,-280 -280,-280 -154.64,0 -280,125.36 -280,280 0,154.64 125.36,280 280,280 154.64,0 280,-125.36 280,-280" /><path
         id="path38"
         style="fill:#e5a114;fill-opacity:1;fill-rule:nonzero;stroke:none"
         d="m 1720,1049.23 c 0,-154.64 -125.36,-280 -280,-280 -154.64,0 -280,125.36 -280,280 0,154.64 125.36,280 280,280 154.64,0 280,-125.36 280,-280" /></g></g></svg>